<?xml version="1.0" encoding="utf-8"?>
<!-- Generator: Adobe Illustrator 18.0.0, SVG Export Plug-In . SVG Version: 6.00 Build 0)  -->
<!DOCTYPE svg PUBLIC "-//W3C//DTD SVG 1.1//EN" "http://www.w3.org/Graphics/SVG/1.1/DTD/svg11.dtd">
<svg version="1.1" xmlns="http://www.w3.org/2000/svg" xmlns:xlink="http://www.w3.org/1999/xlink" x="0px" y="0px"
	 viewBox="0 0 250 250" enable-background="new 0 0 250 250" xml:space="preserve">
<g id="desk-drawer">
	
		<rect x="181.1" y="151.8" fill="#C2B59B" stroke="#000000" stroke-width="0.15" stroke-miterlimit="10" width="43.2" height="64.6"/>
</g>
<g id="left-leg">
	<rect x="24.5" y="151.8" fill="#C2B59B" stroke="#000000" stroke-width="0.15" stroke-miterlimit="10" width="7.2" height="64.6"/>
</g>
<g id="desk-drawer3">
	<rect x="185.1" y="188.1" fill="#6D6E71" stroke="#000000" stroke-width="0.15" stroke-miterlimit="10" width="35" height="13.1"/>
</g>
<g id="desk-drawer2">
	<rect x="185.1" y="172.2" fill="#6D6E71" stroke="#000000" stroke-width="0.15" stroke-miterlimit="10" width="35" height="13.1"/>
</g>
<g id="desk-drawer1">
	<rect x="185.3" y="156" fill="#6D6E71" stroke="#000000" stroke-width="0.15" stroke-miterlimit="10" width="35" height="13.1"/>
</g>
<g id="desk-handle3">
	<rect x="192.6" y="192.7" fill="#6D6E71" stroke="#000000" stroke-width="0.15" stroke-miterlimit="10" width="20" height="3.9"/>
</g>
<g id="desk-handle2">
	<rect x="192.8" y="176.8" fill="#6D6E71" stroke="#000000" stroke-width="0.15" stroke-miterlimit="10" width="20" height="3.9"/>
</g>
<g id="desk-handle1">
	<rect x="192.8" y="160.5" fill="#6D6E71" stroke="#000000" stroke-width="0.15" stroke-miterlimit="10" width="20" height="3.9"/>
</g>
<g id="monitor-neck">
	<rect x="122.8" y="132.2" stroke="#010101" stroke-width="0.15" stroke-miterlimit="10" width="4.4" height="9.5"/>
</g>
<g id="monitor-outer_1_">
	
		<rect id="monitor-outer" x="97.5" y="105" stroke="#010101" stroke-width="0.15" stroke-miterlimit="10" width="55" height="27.2"/>
</g>
<g id="monitor-background">
	<rect x="98.5" y="106.1" fill="#66CBE4" stroke="#010101" stroke-width="0.15" stroke-miterlimit="10" width="53" height="25"/>
</g>

<g id="windows">
<g id="bottom-left-window">
	<rect x="100.6" y="120.4" fill="#A1D6B8" stroke="#010101" stroke-width="0.15" stroke-miterlimit="10" width="18.7" height="8"/>
	<rect x="100.6" y="119.4" fill="#1C75BC" stroke="#010101" stroke-width="0.15" stroke-miterlimit="10" width="18.6" height="1"/>
</g>


<g id="big-window">
	<rect x="121.5" y="108" fill="#1C75BC" stroke="#010101" stroke-width="0.15" stroke-miterlimit="10" width="28.3" height="1"/>
	
		<rect x="121.5" y="108.9" fill="#E4EDB2" stroke="#010101" stroke-width="0.15" stroke-miterlimit="10" width="28.3" height="19.4"/>
</g>
<g id="top-left-window">
	<rect x="100.7" y="108" fill="#1C75BC" stroke="#010101" stroke-width="0.15" stroke-miterlimit="10" width="18.6" height="1"/>
	<rect x="100.6" y="109" fill="#00B09F" stroke="#010101" stroke-width="0.15" stroke-miterlimit="10" width="18.6" height="9.4"/>
</g>
</g>
<g id="keyboard">
	<rect x="98.5" y="143" stroke="#010101" stroke-width="0.15" stroke-miterlimit="10" width="53" height="1.5"/>
</g>
<g id="key18">
	<rect x="148.8" y="141.7" fill="#E6E7E8" stroke="#010101" stroke-width="0.15" stroke-miterlimit="10" width="1.8" height="1.3"/>
</g>
<g id="key17">
	<rect x="146" y="141.7" fill="#E6E7E8" stroke="#010101" stroke-width="0.15" stroke-miterlimit="10" width="1.8" height="1.3"/>
</g>
<g id="key16">
	<rect x="143.2" y="141.7" fill="#E6E7E8" stroke="#010101" stroke-width="0.15" stroke-miterlimit="10" width="1.8" height="1.3"/>
</g>
<g id="key15">
	<rect x="140.5" y="141.7" fill="#E6E7E8" stroke="#010101" stroke-width="0.15" stroke-miterlimit="10" width="1.8" height="1.3"/>
</g>
<g id="key14">
	<rect x="137.6" y="141.7" fill="#E6E7E8" stroke="#010101" stroke-width="0.15" stroke-miterlimit="10" width="1.8" height="1.3"/>
</g>
<g id="key13">
	<rect x="134.7" y="141.7" fill="#E6E7E8" stroke="#010101" stroke-width="0.15" stroke-miterlimit="10" width="1.8" height="1.3"/>
</g>
<g id="key12">
	<rect x="131.7" y="141.7" fill="#E6E7E8" stroke="#010101" stroke-width="0.15" stroke-miterlimit="10" width="1.8" height="1.3"/>
</g>
<g id="key11">
	<rect x="128.7" y="141.7" fill="#E6E7E8" stroke="#010101" stroke-width="0.15" stroke-miterlimit="10" width="1.8" height="1.3"/>
</g>
<g id="key10">
	<rect x="125.7" y="141.7" fill="#E6E7E8" stroke="#010101" stroke-width="0.15" stroke-miterlimit="10" width="1.8" height="1.3"/>
</g>
<g id="key9">
	<rect x="122.8" y="141.7" fill="#E6E7E8" stroke="#010101" stroke-width="0.15" stroke-miterlimit="10" width="1.8" height="1.3"/>
</g>
<g id="key8">
	<rect x="119.9" y="141.7" fill="#E6E7E8" stroke="#010101" stroke-width="0.15" stroke-miterlimit="10" width="1.8" height="1.3"/>
</g>
<g id="key7">
	<rect x="116.9" y="141.7" fill="#E6E7E8" stroke="#010101" stroke-width="0.15" stroke-miterlimit="10" width="1.8" height="1.3"/>
</g>
<g id="key6">
	<rect x="113.9" y="141.7" fill="#E6E7E8" stroke="#010101" stroke-width="0.15" stroke-miterlimit="10" width="1.8" height="1.3"/>
</g>
<g id="key5">
	<rect x="111" y="141.7" fill="#E6E7E8" stroke="#010101" stroke-width="0.15" stroke-miterlimit="10" width="1.8" height="1.3"/>
</g>
<g id="key4">
	<rect x="108" y="141.7" fill="#E6E7E8" stroke="#010101" stroke-width="0.15" stroke-miterlimit="10" width="1.8" height="1.3"/>
</g>
<g id="key3">
	<rect x="105" y="141.7" fill="#E6E7E8" stroke="#010101" stroke-width="0.15" stroke-miterlimit="10" width="1.8" height="1.3"/>
</g>
<g id="key2">
	<rect x="102.2" y="141.7" fill="#E6E7E8" stroke="#010101" stroke-width="0.15" stroke-miterlimit="10" width="1.8" height="1.3"/>
</g>
<g id="key1">
	<rect x="99.4" y="141.7" fill="#E6E7E8" stroke="#010101" stroke-width="0.15" stroke-miterlimit="10" width="1.8" height="1.3"/>
</g>
<g id="mouse">
	<path fill="#A7A9AC" stroke="#010101" stroke-width="0.15" stroke-miterlimit="10" d="M163,144.5h-4.4c-0.6,0-1.1-0.5-1.1-1.1v-0.2
		c0-0.6,0.5-1.1,1.1-1.1h4.4c0.6,0,1.1,0.5,1.1,1.1v0.2C164.1,144,163.6,144.5,163,144.5z"/>
</g>
<g id="right-leg">
</g>
<g id="desktop_1_">
	
		<rect id="_x3C_Rectangle_x3E_" x="14" y="144.5" fill="#C2B59B" stroke="#000000" stroke-width="0.15" stroke-miterlimit="10" width="222" height="7.2"/>
</g>
<g id="right-speaker">
	<path fill="#D1D3D4" stroke="#010101" stroke-width="0.15" stroke-miterlimit="10" d="M178.9,144.5h-7.8c-0.4,0-0.8-0.3-0.8-0.8
		l0,0c0-0.4,0.3-0.8,0.8-0.8h7.8c0.4,0,0.8,0.3,0.8,0.8l0,0C179.7,144.2,179.3,144.5,178.9,144.5z"/>
	<rect x="174.2" y="138.9" fill="#D1D3D4" stroke="#010101" stroke-width="0.15" stroke-miterlimit="10" width="1.6" height="4.1"/>
	<path stroke="#010101" stroke-width="0.15" stroke-miterlimit="10" d="M176.7,138.9h-3.4c-1.3,0-2.3-1-2.3-2.3v-9.4
		c0-1.3,1-2.3,2.3-2.3h3.4c1.3,0,2.3,1,2.3,2.3v9.4C179,137.9,178,138.9,176.7,138.9z"/>
	<circle fill="#A7A9AC" stroke="#010101" stroke-width="0.15" stroke-miterlimit="10" cx="175.1" cy="128.5" r="2.5"/>
	<circle fill="#A7A9AC" stroke="#010101" stroke-width="0.15" stroke-miterlimit="10" cx="175" cy="135" r="2.5"/>
	<circle stroke="#010101" stroke-width="0.15" stroke-miterlimit="10" cx="175.1" cy="128.5" r="1.3"/>
	<circle stroke="#010101" stroke-width="0.15" stroke-miterlimit="10" cx="175" cy="135" r="1.3"/>
</g>
<g id="cup">
	<g id="cup-top">
		<rect x="57.7" y="136.6" fill="#2B3990" stroke="#010101" stroke-width="0.15" stroke-miterlimit="10" width="7.9" height="0.8"/>
	</g>
	<g id="cup-bottom">
		<polygon fill="#27AAE1" stroke="#010101" stroke-width="0.15" stroke-miterlimit="10" points="58.2,137.4 65.1,137.4 64,144.5 
			59.3,144.5 		"/>
	</g>
</g>
<g id="left-speaker">
	<path id="left-speaker-base" fill="#D1D3D4" stroke="#010101" stroke-width="0.15" stroke-miterlimit="10" d="M81.6,144.5h-7.8
		c-0.4,0-0.8-0.3-0.8-0.8l0,0c0-0.4,0.3-0.8,0.8-0.8h7.8c0.4,0,0.8,0.3,0.8,0.8l0,0C82.3,144.2,82,144.5,81.6,144.5z"/>
	
		<rect id="left-speaker-stand" x="76.9" y="138.9" fill="#D1D3D4" stroke="#010101" stroke-width="0.15" stroke-miterlimit="10" width="1.6" height="4.1"/>
	<path id="left-speaker-main" stroke="#010101" stroke-width="0.15" stroke-miterlimit="10" d="M79.3,138.9H76c-1.3,0-2.3-1-2.3-2.3
		v-9.4c0-1.3,1-2.3,2.3-2.3h3.4c1.3,0,2.3,1,2.3,2.3v9.4C81.7,137.9,80.6,138.9,79.3,138.9z"/>
	
		<circle id="left-speaker-top-outer" fill="#A7A9AC" stroke="#010101" stroke-width="0.15" stroke-miterlimit="10" cx="77.8" cy="128.5" r="2.5"/>
	
		<circle id="left-speaker-bot-outer" fill="#A7A9AC" stroke="#010101" stroke-width="0.15" stroke-miterlimit="10" cx="77.7" cy="135" r="2.5"/>
	<circle id="left-speaker-top-inner" stroke="#010101" stroke-width="0.15" stroke-miterlimit="10" cx="77.8" cy="128.5" r="1.3"/>
	<circle id="left-speaker-bot-inner" stroke="#010101" stroke-width="0.15" stroke-miterlimit="10" cx="77.7" cy="135" r="1.3"/>
</g>
</svg>
