<?xml version="1.0" encoding="utf-8"?>
<!-- Generator: Adobe Illustrator 18.0.0, SVG Export Plug-In . SVG Version: 6.00 Build 0)  -->
<!DOCTYPE svg PUBLIC "-//W3C//DTD SVG 1.1//EN" "http://www.w3.org/Graphics/SVG/1.1/DTD/svg11.dtd">
<svg version="1.1" xmlns="http://www.w3.org/2000/svg" xmlns:xlink="http://www.w3.org/1999/xlink" x="0px" y="0px"
	 viewBox="0 0 100.3 53.9" enable-background="new 0 0 100.3 53.9" xml:space="preserve">
<g id="monitor-neck">
	<rect x="48.1" y="13.4" fill="none" stroke="#000000" stroke-width="0.25" stroke-miterlimit="10" width="4" height="4.9"/>
</g>
<g id="Layer_2">
</g>
<g id="Layer_1">
</g>
<g id="desk-leg-left">
	<rect x="6" y="23.7" fill="none" stroke="#000000" stroke-width="0.25" stroke-miterlimit="10" width="3.5" height="29.8"/>
</g>
<g id="desk-drawer-outer">
	<rect x="74.7" y="23.7" fill="none" stroke="#000000" stroke-width="0.25" stroke-miterlimit="10" width="20" height="30.1"/>
</g>
<g id="desk-drawer1">
	<rect x="76.6" y="24.8" fill="none" stroke="#000000" stroke-width="0.25" stroke-miterlimit="10" width="16" height="5.3"/>
</g>
<g id="desk-drawer2">
	<rect x="76.6" y="31.8" fill="none" stroke="#000000" stroke-width="0.25" stroke-miterlimit="10" width="16" height="5.3"/>
</g>
<g id="desk-drawer3">
	<rect x="76.7" y="38.6" fill="none" stroke="#000000" stroke-width="0.25" stroke-miterlimit="10" width="16" height="5.3"/>
</g>
<g id="desk-handle1">
	<rect x="80.5" y="26.8" fill="none" stroke="#000000" stroke-width="0.25" stroke-miterlimit="10" width="8.3" height="1.3"/>
</g>
<g id="desk-handle2">
	<rect x="80.5" y="33.8" fill="none" stroke="#000000" stroke-width="0.25" stroke-miterlimit="10" width="8.3" height="1.3"/>
</g>
<g id="desk-handle3">
	<rect x="80.5" y="40.6" fill="none" stroke="#000000" stroke-width="0.25" stroke-miterlimit="10" width="8.3" height="1.3"/>
</g>
<g id="desktop">
	<polygon fill="none" stroke="#000000" stroke-width="0.25" stroke-miterlimit="10" points="6,23.7 0.1,23.7 0.1,20.6 100.1,20.6 
		100.1,23.7 	"/>
</g>
<g id="cup-top">
	<rect x="14.8" y="16" fill="none" stroke="#000000" stroke-width="0.25" stroke-miterlimit="10" width="4.3" height="0.5"/>
</g>
<g id="cup-bottom">
	<polygon fill="none" stroke="#000000" stroke-width="0.25" stroke-miterlimit="10" points="15.1,16.5 18.8,16.5 18.2,20.6 
		15.7,20.6 15.1,16.5 	"/>
</g>
<g id="keyboard">
	<rect x="37" y="19.2" fill="none" stroke="#000000" stroke-width="0.25" stroke-miterlimit="10" width="26.3" height="1.5"/>
</g>
<g id="key1">
	<rect x="37.5" y="18.3" fill="none" stroke="#000000" stroke-width="0.25" stroke-miterlimit="10" width="1.4" height="0.8"/>
</g>
<g id="key2">
	<rect x="39.5" y="18.3" fill="none" stroke="#000000" stroke-width="0.25" stroke-miterlimit="10" width="1.4" height="0.8"/>
</g>
<g id="key3">
	<rect x="41.4" y="18.3" fill="none" stroke="#000000" stroke-width="0.25" stroke-miterlimit="10" width="1.4" height="0.8"/>
</g>
<g id="key4">
	<rect x="43.3" y="18.3" fill="none" stroke="#000000" stroke-width="0.25" stroke-miterlimit="10" width="1.4" height="0.8"/>
</g>
<g id="key5">
	<rect x="45.3" y="18.3" fill="none" stroke="#000000" stroke-width="0.25" stroke-miterlimit="10" width="1.4" height="0.8"/>
</g>
<g id="key6">
	<rect x="47.2" y="18.3" fill="none" stroke="#000000" stroke-width="0.25" stroke-miterlimit="10" width="1.4" height="0.8"/>
</g>
<g id="key7">
	<rect x="49.1" y="18.3" fill="none" stroke="#000000" stroke-width="0.25" stroke-miterlimit="10" width="1.4" height="0.8"/>
</g>
<g id="key8">
	<rect x="51.2" y="18.3" fill="none" stroke="#000000" stroke-width="0.25" stroke-miterlimit="10" width="1.4" height="0.8"/>
</g>
<g id="key9">
	<rect x="53.3" y="18.3" fill="none" stroke="#000000" stroke-width="0.25" stroke-miterlimit="10" width="1.4" height="0.8"/>
</g>
<g id="key10">
	<rect x="55.4" y="18.3" fill="none" stroke="#000000" stroke-width="0.25" stroke-miterlimit="10" width="1.4" height="0.8"/>
</g>
<g id="key11">
	<rect x="57.4" y="18.3" fill="none" stroke="#000000" stroke-width="0.25" stroke-miterlimit="10" width="1.4" height="0.8"/>
</g>
<g id="key12">
	<rect x="59.4" y="18.3" fill="none" stroke="#000000" stroke-width="0.25" stroke-miterlimit="10" width="1.4" height="0.8"/>
</g>
<g id="key13">
	<rect x="61.4" y="18.3" fill="none" stroke="#000000" stroke-width="0.25" stroke-miterlimit="10" width="1.4" height="0.8"/>
</g>
<g id="monitor-outer">
	<polygon fill="none" stroke="#000000" stroke-width="0.25" stroke-miterlimit="10" points="48.1,13.4 36.6,13.4 36.6,0.1 63.7,0.1 
		63.7,13.4 52.1,13.4 	"/>
</g>
<g id="monitor-inner">
	<rect x="37.1" y="0.6" fill="none" stroke="#000000" stroke-width="0.25" stroke-miterlimit="10" width="26.1" height="12.2"/>
</g>
<g id="titlebar1">
	<polygon fill="none" stroke="#000000" stroke-width="0.25" stroke-miterlimit="10" points="38.2,1.7 48.4,1.7 48.4,2.1 38.2,2.1 	
		"/>
</g>
<g id="titlebar2">
	<polygon fill="none" stroke="#000000" stroke-width="0.25" stroke-miterlimit="10" points="49.1,1.6 62.1,1.6 62.1,2.1 49.1,2.1 	
		"/>
</g>
<g id="titlebar3">
	<rect x="38.2" y="8.4" fill="none" stroke="#000000" stroke-width="0.25" stroke-miterlimit="10" width="10.2" height="0.4"/>
</g>
<g id="window1">
	<polygon fill="none" stroke="#000000" stroke-width="0.25" stroke-miterlimit="10" points="38.2,2.1 48.4,2.1 48.4,6.2 38.2,6.2 	
		"/>
</g>
<g id="window2">
	<rect x="49.1" y="2.1" fill="none" stroke="#000000" stroke-width="0.25" stroke-miterlimit="10" width="13" height="10.1"/>
</g>
<g id="window3">
	<rect x="38.2" y="8.8" fill="none" stroke="#000000" stroke-width="0.25" stroke-miterlimit="10" width="10.2" height="3.4"/>
</g>
<g id="pc-case-outer">
	<rect x="71.2" y="0.2" fill="none" stroke="#000000" stroke-width="0.25" stroke-miterlimit="10" width="8.1" height="20.4"/>
</g>
<g id="pc-case-inner1">
	<rect x="71.7" y="0.9" fill="none" stroke="#000000" stroke-width="0.25" stroke-miterlimit="10" width="7" height="1.5"/>
</g>
<g id="pc-case-inner2">
	<rect x="71.8" y="3" fill="none" stroke="#000000" stroke-width="0.25" stroke-miterlimit="10" width="7" height="0.8"/>
</g>
<g id="pc-case-inner3">
	<rect x="71.7" y="5.9" fill="none" stroke="#000000" stroke-width="0.25" stroke-miterlimit="10" width="7" height="14"/>
</g>
</svg>
